<svg xmlns="http://www.w3.org/2000/svg" viewBox="0 0 256 256">
  <rect width="256" height="256" rx="32" fill="#FFFFFF"/>

  <!-- Quadrado de estacionamento com bordas arredondadas -->
  <path d="M 50 50 L 180 50 Q 200 50 200 70 L 200 175 Q 200 195 180 195 L 70 195 Q 50 195 50 175 L 50 70 Q 50 50 70 50 Z"
        fill="none" stroke="#0000DC" stroke-width="22" stroke-linejoin="round"/>

  <!-- Letra P em azul -->
  <text x="78" y="170" font-family="Arial, Helvetica, sans-serif" font-weight="900" font-size="130" fill="#0000DC">P</text>

  <!-- Aviao silueta no canto inferior direito -->
  <g transform="translate(140, 145)" fill="#0000DC">
    <path d="M 0 35 L 22 28 L 35 5 L 45 0 L 50 5 L 42 26 L 75 24 L 85 14 L 92 14 L 88 28 L 95 32 L 92 38 L 85 38 L 82 47 L 50 50 L 42 60 L 35 60 L 32 50 L 22 50 L 18 60 L 13 60 L 13 50 L 0 45 Z"/>
  </g>
</svg>
