<svg xmlns="http://www.w3.org/2000/svg" viewBox="0 0 256 256">
  <!-- Fundo laranja Master -->
  <rect width="256" height="256" rx="32" fill="#F5A623"/>

  <!-- Texto MASTER -->
  <text x="128" y="138" text-anchor="middle"
        font-family="'Arial Black', Arial, sans-serif"
        font-weight="900" font-size="44" fill="#1A3A8C"
        letter-spacing="-0.5">MASTER</text>

  <!-- Curva swoosh embaixo -->
  <path d="M 30 165 Q 128 215 225 165"
        stroke="#1A3A8C" stroke-width="5" fill="none" stroke-linecap="round"/>

  <!-- Circulo com aviao no canto direito -->
  <circle cx="210" cy="138" r="32" fill="none" stroke="#1A3A8C" stroke-width="5"/>

  <!-- Aviao silueta de jato no circulo -->
  <g transform="translate(184, 125)" fill="#1A3A8C">
    <path d="M 5 14 L 18 11 L 28 2 L 34 0 L 36 3 L 30 11 L 48 10 L 50 7 L 53 7 L 51 12 L 53 14 L 51 16 L 48 16 L 46 20 L 30 21 L 24 28 L 21 28 L 20 22 L 14 22 L 12 28 L 9 28 L 9 22 L 5 18 Z"/>
  </g>
</svg>
